<svg width="561" height="608" viewBox="0 0 561 608" fill="none" xmlns="http://www.w3.org/2000/svg">
<g filter="url(#filter0_di_2028_2092)">
<path fill-rule="evenodd" clip-rule="evenodd" d="M379.088 160.303C385.961 16.7446 305.774 -13.2784 238.14 4.67569C172.265 22.1713 132.731 118.456 204.915 206.552C59.8646 146.88 5.82766 209.623 4.02679 281.055C2.19395 353.821 94.6779 416.287 200.652 375.794C101.189 460.788 114.306 517.135 147.841 562.041C193.428 623.089 325.126 620.637 366.407 478.955C404.034 577.618 518.267 560.964 548.456 507.56C581.052 449.892 600.553 379.941 471.743 310.94C582.693 282.975 619.35 186.626 581.681 125.397C545.77 67.0032 432.368 56.1497 379.088 160.303Z" fill="#E8D0AE"/>
</g>
<defs>
<filter id="filter0_di_2028_2092" x="0" y="0" width="600" height="608" filterUnits="userSpaceOnUse" color-interpolation-filters="sRGB">
<feFlood flood-opacity="0" result="BackgroundImageFix"/>
<feColorMatrix in="SourceAlpha" type="matrix" values="0 0 0 0 0 0 0 0 0 0 0 0 0 0 0 0 0 0 127 0" result="hardAlpha"/>
<feOffset dy="4"/>
<feGaussianBlur stdDeviation="2"/>
<feComposite in2="hardAlpha" operator="out"/>
<feColorMatrix type="matrix" values="0 0 0 0 0 0 0 0 0 0 0 0 0 0 0 0 0 0 0.25 0"/>
<feBlend mode="normal" in2="BackgroundImageFix" result="effect1_dropShadow_2028_2092"/>
<feBlend mode="normal" in="SourceGraphic" in2="effect1_dropShadow_2028_2092" result="shape"/>
<feColorMatrix in="SourceAlpha" type="matrix" values="0 0 0 0 0 0 0 0 0 0 0 0 0 0 0 0 0 0 127 0" result="hardAlpha"/>
<feOffset/>
<feGaussianBlur stdDeviation="10"/>
<feComposite in2="hardAlpha" operator="arithmetic" k2="-1" k3="1"/>
<feColorMatrix type="matrix" values="0 0 0 0 0.447059 0 0 0 0 0.4 0 0 0 0 0.337255 0 0 0 1 0"/>
<feBlend mode="normal" in2="shape" result="effect2_innerShadow_2028_2092"/>
</filter>
</defs>
</svg>
